# xmcd
#
# Track frame offsets:
#	150
#	16365
#	33426
#	62676
#	85338
#	101883
#	120296
#	141453
#	156979
#	176467
#	196530
#	249213
#	274760
#	297722
#	317089
#
# Disc length: 4469 seconds
#
# Revision: 0
# Processed by: cddbd v1.5.2PL0 Copyright (c) Steve Scherf et al.
# Submitted via: EasyCDDAExtractor 9.0.0.1
#
DISCID=d211730f
DTITLE=Various Artist - Michael Rubin Call of my Harp
DYEAR=2006
DGENRE=
TTITLE0=Shelley King - Call of My Heart
TTITLE1=Jeff Plankenhorn - Lovesick Woman
TTITLE2=Trish Murphy - Vanilla Sun
TTITLE3=The Hill Country Strings - Sicilienne
TTITLE4=Mr. Brown - Vicious Circle
TTITLE5=Foscoe Jones - DUIs Blues
TTITLE6=Scarecrow - Lost
TTITLE7=The Lemmings - Nazareth
TTITLE8=Sara Hickman - Little Bird of Anger
TTITLE9=Moving Blues - I Say Tomato
TTITLE10=Groovin Ground - Big Bend
TTITLE11=Sick - Writing Rhymes
TTITLE12=Idgy Vaughn - Over You
TTITLE13=Stu Magnesss - If You Were Mine
TTITLE14=Matt the Electrician - Goodbye
EXTD=
EXTT0=
EXTT1=
EXTT2=
EXTT3=
EXTT4=
EXTT5=
EXTT6=
EXTT7=
EXTT8=
EXTT9=
EXTT10=
EXTT11=
EXTT12=
EXTT13=
EXTT14=
PLAYORDER=
